<svg width="452" height="110" viewBox="0 0 452 110" fill="none" xmlns="http://www.w3.org/2000/svg">
<path fill-rule="evenodd" clip-rule="evenodd" d="M50.5 34C53.7634 34 56.9535 34.9677 59.6669 36.7808C62.3803 38.5938 64.4952 41.1707 65.744 44.1857C66.9929 47.2007 67.3196 50.5183 66.683 53.719C66.0463 56.9197 64.4748 59.8597 62.1672 62.1672C59.8597 64.4748 56.9197 66.0463 53.719 66.683C50.5183 67.3196 47.2007 66.9929 44.1857 65.744C41.1707 64.4952 38.5938 62.3803 36.7808 59.6669C34.9677 56.9535 34 53.7634 34 50.5C34 46.1239 35.7384 41.9271 38.8328 38.8328C41.9271 35.7384 46.1239 34 50.5 34ZM232 54C228.835 54 225.742 54.9384 223.111 56.6965C220.48 58.4546 218.429 60.9535 217.218 63.8771C216.007 66.8007 215.69 70.0178 216.307 73.1215C216.925 76.2252 218.449 79.0761 220.686 81.3137C222.924 83.5514 225.775 85.0752 228.879 85.6926C231.982 86.3099 235.199 85.993 238.123 84.782C241.047 83.571 243.545 81.5203 245.304 78.8891C247.062 76.2579 248 73.1645 248 70C248 65.7565 246.314 61.6869 243.314 58.6863C240.313 55.6857 236.243 54 232 54ZM270 30V110H232.83C210.38 110 191.56 91.63 192.01 69.18C192.225 58.7158 196.532 48.7526 204.008 41.4279C211.484 34.1031 221.534 30.0004 232 30H270ZM144 30L158 48.67L172 30H204L174 70L204 110H172L158 91.33L144 110H112L142 70L112 30H144ZM452 30V110H424V30H452ZM417 30V110H389V68C389.102 64.287 387.725 60.6854 385.172 57.9877C382.618 55.29 379.098 53.7171 375.385 53.615C371.672 53.5129 368.07 54.89 365.373 57.4433C362.675 59.9966 361.102 63.5169 361 67.23V110H333V68C333.102 64.287 331.725 60.6854 329.172 57.9877C326.618 55.29 323.098 53.7171 319.385 53.615C315.672 53.5129 312.07 54.89 309.373 57.4433C306.675 59.9966 305.102 63.5169 305 67.23V110H277V30H417ZM75 0V28H28V110H0V0H75ZM108 30V110H80V30H108Z" fill="#FF4B00"/>
</svg>
